<svg id="Layer_1" data-name="Layer 1" xmlns="http://www.w3.org/2000/svg" viewBox="0 0 149.29 160.68"><defs><style>.cls-1,.cls-3{fill:#ffd8a1;}.cls-2{fill:#7b5d3e;}.cls-3{stroke:#7b5d3e;stroke-width:3px;}.cls-3,.cls-6{stroke-miterlimit:10;}.cls-4{fill:#231f20;}.cls-5,.cls-6{fill:#c39887;}.cls-6{stroke:#c39887;stroke-width:4px;}</style></defs><title>Artboard 5</title><path class="cls-1" d="M45.38,120.57C36.65,121,24,115.65,20.1,108.06c-4.87-9.44-6.17-11.57-7.23-22-.38-3.73.52-19-5.77-18.44C1.69,68.14,1.48,85,2.28,88.74c2,9.18,3.72,10.16,7.16,19C13.49,118.05,26,128.09,38,127.63"/><path class="cls-2" d="M45.38,119.07A31.08,31.08,0,0,1,26.5,113c-5.17-3.85-8.43-10.9-10.33-17-1.61-5.1-1.76-10.37-2-15.66-.19-3.79-.29-8.58-2.57-11.81C10.05,66.38,7.34,65.38,5,66.91c-2.86,1.86-3.56,6.27-4,9.33C-.55,86.54,2.11,94.66,6.27,104c3.12,7,6.06,13,12.19,17.87A30.94,30.94,0,0,0,38,129.13a1.5,1.5,0,0,0,0-3C20.06,126.2,11.12,110,5.69,95.38a35.89,35.89,0,0,1-2.1-15.76c.2-2.63.36-6.51,1.92-8.78,2.5-3.63,4.26.22,4.89,2.87,1.15,4.82.64,9.91,1.25,14.81A46.33,46.33,0,0,0,16.35,104c2.86,5.74,5.75,10.08,11.42,13.33a34.13,34.13,0,0,0,17.61,4.71c1.93,0,1.93-3,0-3Z"/><path class="cls-1" d="M46.67,129.44c0,4.66,1.53,12.73-4.08,12.42-6.3-.34-5.43-8.74-7-13.69"/><path class="cls-2" d="M45.17,129.44c0,2.7,1.72,12.79-3.71,10.68-3.91-1.52-3.43-9-4.4-12.35a1.5,1.5,0,0,0-2.89.8c1.47,5.08.87,14.23,8.11,14.76,7.48.55,5.94-9.19,5.89-13.89a1.5,1.5,0,0,0-3,0Z"/><path class="cls-1" d="M78.19,118.75c3.23-5.66,11.13-6,14.4-.4a20.47,20.47,0,0,1,2.87,11.44c-.37,4-3.29,6.15-3.65,10.05,2.3.07,6.52,2.64,8.24,4.57,2.82,3.17,2.12,5.14-1.63,6.63-2.93,1.16-6.34,2.13-9.37,1.3-2.73-.75-6.67-2-8.89-4.2-2.6-2.61-2-8.54-4.36-10.5"/><path class="cls-2" d="M79.49,119.51c1.8-2.71,4.92-4.48,8.23-3.38s4.88,5,5.69,8.08a13.11,13.11,0,0,1-.77,9.3,22.11,22.11,0,0,0-2.27,5.93c-.13.72.18,1.72,1,1.85,3.09.45,7.69,2.61,7.54,6,.54,1.87-.27,2.81-2.43,2.84a18.33,18.33,0,0,1-4.34,1,14.55,14.55,0,0,1-5.3-1c-4.23-1.46-6.41-3.43-7.54-7.87-.55-2.17-1-4-2.48-5.67-1.29-1.44-3.41.68-2.12,2.12,2,2.19,1.64,5.73,2.9,8.29a9.77,9.77,0,0,0,4,4.11,18.45,18.45,0,0,0,16.41,1.66c10.42-3.91,1.62-13.27-5.86-14.37l1.05,1.85c.8-4.59,4-7.79,3.71-12.68-.2-3.77-1.55-8.38-4-11.32-4.64-5.49-12.37-3.78-16,1.76-1.07,1.61,1.52,3.11,2.59,1.51Z"/><path class="cls-1" d="M67.67,87c-15.3,0-24.1,2.54-33.12,19.76-4.54,8.67-12,32.18,2.24,39,11.61,5.56,25.39,4.12,33.78-.81l9.67-2.47c2.06,0,8-6.1,9.41-7.33.71-.63.25-8.33.53-9.34l-.24-9.44c0,10.1-1.68,39.15,10.66,34.16,10.31-4.18,8.06-38.18,8.06-48.31"/><path class="cls-2" d="M67.67,85.47c-12.77.06-23,3.06-30.54,14-6.45,9.36-11.15,22-10,33.48,1.46,14.19,15.86,18.62,28.49,17.75,6.54-.44,11.7-3.42,17.82-5,4.15-1.06,8-1.58,11.45-4.29,1.8-1.44,4.88-3.49,6-5.55s.62-4.77.63-6.86c0-4.23,0-8.44-.14-12.68a1.5,1.5,0,0,0-3,0c0,6.63-2.22,43.8,13.48,35.19,6.54-3.59,7.3-14.22,7.89-20.68.88-9.55.39-19.1.35-28.66a1.5,1.5,0,0,0-3,0c0,7.08.34,14.14.1,21.21-.25,7.22-.14,17.16-4.55,23.33-6.14,8.59-10.06-3.64-10.7-8.65-.94-7.2-.6-14.5-.57-21.74h-3c.08,3,.26,6.11.23,9.15s.73,7.37-1.33,9.76a19.22,19.22,0,0,1-10,6.39,78.27,78.27,0,0,0-10.9,3.63c-11,4.51-32.64,4.4-35.9-10.12-2.08-9.26,1.36-20.2,5.7-28.36,3.16-5.92,7.21-11.87,13.28-15.08,5.57-2.94,12-3.19,18.16-3.22a1.5,1.5,0,0,0,0-3Z"/><path class="cls-1" d="M120,24c2.57-4.54,7.1-9,11.13-10.62C139,10.27,142.67,24.7,143,31.11c.2,3.64-.07,11.8-2.65,13.79"/><path class="cls-2" d="M121.26,24.74c2.2-3.6,7.1-10.45,12-10.2,3.9.2,5.76,5.52,6.73,8.65,1.62,5.25,3.57,16.3-.71,20.65-1.35,1.38.77,3.5,2.12,2.12,6.13-6.22,3.16-21.14-.26-28-6.18-12.47-17.35-3.15-22.51,5.31-1,1.65,1.59,3.16,2.59,1.51Z"/><path class="cls-1" d="M53.65,23.82c-2.28-4.89-7.25-9.93-11.75-11.47-8-2.75-12.39,12-13,18.53-.35,3.69-.39,11.93,2.2,13.82"/><path class="cls-2" d="M54.94,23.07C52.31,17.94,47.16,11.44,41,10.61c-4.36-.58-7.45,2.83-9.41,6.31a36.19,36.19,0,0,0-4.19,14C27,35.36,26.52,42.31,30,45.76c1.38,1.36,3.5-.76,2.12-2.12-4.5-4.44-1.56-16.35.37-21.54,1.15-3.1,3.21-8,7-8.5,5.42-.69,10.78,6.93,12.86,11,.88,1.72,3.47.2,2.59-1.51Z"/><path d="M89.6,67.89a5.58,5.58,0,0,1-2.79,1c-1.1,0-2.28-1-3.25-1.42-1.73-.81-3.26,1.77-1.51,2.59,1.52.71,3.06,1.86,4.81,1.83a8.6,8.6,0,0,0,4.25-1.41c1.6-1.08.1-3.68-1.51-2.59Z"/><path class="cls-3" d="M58.57,22.65a60.17,60.17,0,0,1,27.52-7.08c31.46,0,64.37,31.25,61,57-2.21,16.85-29.41,29.81-60.88,29.81S29.73,89.09,27.11,70.27c-1.42-10.14,2.57-20.79,9.85-30"/><path class="cls-3" d="M37,40.29A67.52,67.52,0,0,1,58.57,22.65"/><path d="M71.86,60.51c.73,0,3,.69,2.5,1.66-.23.46-1.29.73-1.74.78a1.47,1.47,0,0,1-1.57-1c-.14-.28-.57-1.6-.3-1.75s.78.26,1,.38.41.55.6.64c.16.42.45.33.87-.26a.94.94,0,0,1-.23-.26A5.27,5.27,0,0,0,71.8,59c-1.34-1.4-3.46.72-2.12,2.12.85.89,1.14,2.14,2.45,2.57a2.5,2.5,0,0,0,3.3-2c.28-2.67-3.08-5.07-5.54-4.38-3.26.9-2.34,5.52-.53,7.35,2,2.06,5.94,1.38,7.54-.93,2.33-3.36-2.12-6.11-5-6.27-1.93-.11-1.92,2.89,0,3Z"/><path d="M95.78,70.23c.34,1.93,2.64,3.37,4.08,4.48a13.92,13.92,0,0,0,2.85,1.52,11.08,11.08,0,0,0,3,1.2c1.89.27,2.71-2.62.8-2.89a13.69,13.69,0,0,1-4.26-1.81c-.9-.54-3.38-2.18-3.58-3.29-.33-1.9-3.23-1.1-2.89.79Z"/><path d="M96,68.92a4.24,4.24,0,0,0-1.39,1.17A10.26,10.26,0,0,1,92.53,72a11.73,11.73,0,0,1-5,1.94c-1.89.35-1.09,3.25.8,2.9A12.61,12.61,0,0,0,93.5,75a19.9,19.9,0,0,0,2.36-1.7c.58-.54.94-1.39,1.67-1.75,1.72-.87.2-3.46-1.52-2.59Z"/><path class="cls-4" d="M95.41,67.74a2.58,2.58,0,0,1-1.8-1.09l-.54,2c1.73-1,5.93-1.51,7.24.45l.54-2.06a8.92,8.92,0,0,1-3.63,1.34,6.45,6.45,0,0,1-1.7,0c-.71-.11-1.18-.59-1.8-.78-.6-.59-.84-.12-.73,1.42a6.62,6.62,0,0,1,.89,0c.59,0,1.17.21,1.76.3a8.28,8.28,0,0,0,3.47,0,1.5,1.5,0,0,0-.8-2.89c-2,.52-4.09-.87-6.12-.29a1.93,1.93,0,0,0-1,3.26c2.68,3.23,8,2.15,11.13.25a1.51,1.51,0,0,0,.54-2.05c-2.29-3.42-8.07-3.38-11.34-1.52a1.53,1.53,0,0,0-.54,2,5.59,5.59,0,0,0,3.59,2.48,1.51,1.51,0,0,0,.8-2.9Z"/><path d="M120.38,57.51c-2.61.14-6.48,2.15-5.52,5.33.79,2.62,4.79,3.9,7.07,2.6s3.91-5.91,1.28-7.68c-2.28-1.53-5.58.47-6.29,2.85a2.45,2.45,0,0,0,2.55,3.24c1.74-.11,2.08-1.64,3.09-2.69,1.33-1.4-.78-3.52-2.12-2.12a5.74,5.74,0,0,0-1.11,1.57,1.27,1.27,0,0,1-.27.34c.42.59.71.68.87.26.18-.1.33-.44.52-.59s.79-.53,1.06-.4c-.06,0,0,.45,0,.65a3.31,3.31,0,0,1-.32,1.07,1.48,1.48,0,0,1-1.43,1,2.8,2.8,0,0,1-1.8-.71c-.74-1,1.68-1.7,2.42-1.74,1.92-.11,1.93-3.11,0-3Z"/><path class="cls-5" d="M70,19.65c1.42,1.65.73,9.44,5,7.05,2.66-1.47,2-6.64,2.53-9.07"/><path class="cls-5" d="M84.22,17C84,19,85,25.89,87.3,26.4c3.47.78,3.88-7,3.82-9.21"/><path class="cls-5" d="M97.32,18.23c0,1.82-1.1,8.26.84,9,3,1.18,3.9-6,4-7.65"/><path class="cls-5" d="M30.23,55.75c2,0,10.15.15,7.1,3.51-1.62,1.78-6.22,1.06-8.49,1.31"/><path class="cls-5" d="M28.43,67.59c1.18-.27,6.31-.76,7.41,1,2,3.15-5.25,4-7,4.39"/><path class="cls-5" d="M144.35,59.27c-2.07,0-7.81-1-6.72,2.78.68,2.35,5.89,2.64,7.85,2.46"/><path class="cls-5" d="M145.78,70.09c-2.28.29-6.19-1.64-7.86.4-2.38,2.9,5,3.68,7.12,4.12"/><path class="cls-2" d="M124.05,71.75a74.68,74.68,0,0,1,13.45.73c1.89.35,2.7-2.55.8-2.89a78.11,78.11,0,0,0-14.25-.84,1.5,1.5,0,0,0,0,3Z"/><path class="cls-2" d="M122.86,77.29A22.34,22.34,0,0,1,135.16,81c1.64,1,3.15-1.56,1.52-2.59a25.27,25.27,0,0,0-13.82-4.16c-1.93,0-1.93,3,0,3Z"/><path class="cls-2" d="M65.37,69.93a51.3,51.3,0,0,0-11.87.85c-1.88.44-1.09,3.33.8,2.89,3.64-.85,7.36-.75,11.07-.74a1.5,1.5,0,0,0,0-3Z"/><path class="cls-2" d="M66.56,73.49c-4.39,0-8.67,3.1-11.75,6-1.41,1.33.72,3.44,2.13,2.13,2.46-2.31,6.09-5.08,9.62-5.11a1.5,1.5,0,0,0,0-3Z"/><path class="cls-1" d="M40.39,34.6c4.36-.22,8-2.49,11.9-4.26L50.47,28c-2.92,2.38-5.89,4.5-9.69,5.16l1.7,2.2c1.92-4.45,13.18-5.27,7.08-11.79l-1.82,2.36c2,.94,3.61,2.4,5.49,3.49l1.51-2.59a3.92,3.92,0,0,1-2.79-3l-2.51,1.46c2.53,3,4.1,4.26,8,3.33L56,26.13c-3.69,2.88-8.68,3.41-13,5l1.85,1,3-3.4-1.16-2.74c-5.48,3-4.44,10.25-9.42,13.35l2.2.9A7.62,7.62,0,0,1,41,34.71L38.16,34c-.31,5.94-4.33,10.88-5.62,16.64A1.51,1.51,0,0,0,35,52.05c2.85-2.74,2.13-7.12,3.58-10.51,1.88-4.43,11.9-8.6,15.92-5.09,1.45,1.26,3.58-.85,2.12-2.13-4.35-3.8-10.92-1.7-15.49.71-2.34,1.23-4.22,2.63-5.26,5.12-1.21,2.88-.64,7.52-3,9.78l2.51,1.46c1.37-6.12,5.4-11.06,5.73-17.44a1.52,1.52,0,0,0-2.8-.76c-1.59,2.61-2.35,4.92-1.72,7.93a1.51,1.51,0,0,0,2.2.9c5.12-3.18,4.35-10.59,9.43-13.35,1.56-.85.44-3.06-1.16-2.74-3.67.72-6,3.31-5.15,7.09a1.51,1.51,0,0,0,1.85,1c4.88-1.85,10.09-2.53,14.29-5.8,1.27-1-.13-2.83-1.46-2.51-2.86.68-3.63-.86-5.08-2.56a1.51,1.51,0,0,0-2.51,1.46,7.26,7.26,0,0,0,4.18,4.76c1.72.76,3.22-1.6,1.51-2.59-1.88-1.09-3.52-2.55-5.48-3.49a1.51,1.51,0,0,0-1.82,2.36c2.16,2.31-3.15,4-4.4,4.84a7.57,7.57,0,0,0-3.15,3.31A1.52,1.52,0,0,0,41.58,36c4.27-.74,7.71-3.24,11-5.93,1.42-1.16-.39-3-1.82-2.36-3.35,1.53-6.61,3.66-10.38,3.85-1.92.1-1.93,3.1,0,3Z"/><path class="cls-1" d="M127.09,25.58c-4.66-.68-6.91-.12-10.45,3.49a1.52,1.52,0,0,0,.66,2.51c3.31,1.17,6.86-5.19,8.13-7.45L122.69,23c-1,4-4.39,3.61-7.71,3.93-1.55.15-2.19,2.58-.4,2.94,3.48.7,6.46-.09,9.92-.56L123,26.77c-3.66,4.18,2.4,7.05,5.46,9a1.51,1.51,0,0,0,1.82-2.36c-1.86-1.72-2.87-4-4.2-6.09l-1.7,2.2c3.25.74,6.61,6.21,8.18,8.89l.89-2.2L132,35.74l-2-.54c1.65,3.69.69,6.37,5,8a1.51,1.51,0,0,0,1.9-1.45,14.72,14.72,0,0,0-.74-4.45L134,39c4.9,2.78,1.32,8.37,3.16,12.73l2.06-2.06c-2.78-2-1.75-8.23-3.59-11.21-1-1.64-3.61-.13-2.59,1.51,2.51,4.06.4,9.16,4.66,12.29,1.37,1,2.56-.86,2.05-2-1.14-2.72.49-5.8-.05-8.62-.48-2.51-2-4-4.19-5.18a1.52,1.52,0,0,0-2.2,1.7,8.41,8.41,0,0,1,.63,3.65l1.9-1.44c-2.57-1-2.25-4.44-3.22-6.6a1.5,1.5,0,0,0-2.05-.54c-4.11,2.93-.45,7.09,3.76,6a1.52,1.52,0,0,0,.9-2.2c-2.05-3.5-5.75-9.31-10-10.27a1.51,1.51,0,0,0-1.69,2.2c1.49,2.37,2.59,4.78,4.67,6.7L130,33.22c-.58-.38-5.82-3.22-4.85-4.33a1.51,1.51,0,0,0-1.45-2.51c-2.84.39-5.44,1.15-8.33.57L115,29.9c4.92-.48,9.16-.6,10.6-6.13a1.51,1.51,0,0,0-2.74-1.16c-.54,1-3.84,6.4-4.75,6.08l.67,2.51c2.65-2.72,4.12-3.22,7.53-2.73,1.89.27,2.71-2.62.8-2.89Z"/><path class="cls-1" d="M33.57,39.57c0,.74,0,1.47-.07,2.21,0,.31.06-.29,0,0,0,.12,0,.24-.07.36l-.06.23s0,.08,0,.13l.08-.19s-.06.12-.09.16.31-.33.12-.15a1.22,1.22,0,0,1,1.15-.29c-.18,0,.44.22.22.09.37.23.3.25.2.14s.21.39.1.13a.71.71,0,0,0-.08-.15c-.16-.22.11.37,0,.14a1.55,1.55,0,0,0-.08-.23c0-.15-.07-.3-.1-.46s0,.4,0,.12c0-.1,0-.2,0-.3a5.23,5.23,0,0,1,0-.56c0-.06,0-.42,0-.13s0-.08,0-.14a4.31,4.31,0,0,1,.16-.59.52.52,0,0,1,.06-.16c0-.15,0-.12-.05.11,0-.05.09-.2.12-.25a3.58,3.58,0,0,1,.41-.63,1.52,1.52,0,0,0-.54-2,1.54,1.54,0,0,0-2,.54,6.14,6.14,0,0,0-.93,5.27,2.8,2.8,0,0,0,1.46,1.91,2,2,0,0,0,2.54-1.24,10.21,10.21,0,0,0,.48-4,1.5,1.5,0,0,0-3,0Z"/><path class="cls-1" d="M115.37,29.17c2.45.66,4.67,1,6.82,2.46,1.38.95,2.58-.83,2.06-2.05a1.56,1.56,0,0,0-1-.79,1.5,1.5,0,0,0-.8,2.89l.1,0-.9-.69,0,.07L123.71,29c-2.35-1.6-4.87-2-7.54-2.77a1.51,1.51,0,0,0-.8,2.9Z"/><path class="cls-1" d="M121.67,24.68c-.13.33-.71.75-1,1A1.5,1.5,0,0,0,122.52,28a4,4,0,0,0,1.37-1.44,1.51,1.51,0,0,0-1.3-2.26c-1.11.11-1.68.83-2.55,1.43s-1.89,1.05-2.74,1.67a1.56,1.56,0,0,0-.54,2.06,1.51,1.51,0,0,0,2,.53c.74-.54,1.63-.84,2.38-1.39.35-.26.71-.48,1.07-.73a9.72,9.72,0,0,1,.85-.75l-.75.21.23,0-1.29-2.25a1.41,1.41,0,0,1-.29.36l1.82,2.36a6.31,6.31,0,0,0,1.73-2.31c.67-1.81-2.23-2.6-2.89-.8Z"/><path class="cls-2" d="M142.4,48a20.17,20.17,0,0,1-1-2.08c-.13-.6.63-1,1-1.4,1.39-1.34-.73-3.46-2.12-2.12a4.83,4.83,0,0,0-1.88,2.93,3.73,3.73,0,0,0,.31,1.92c.23.53.63,1,.83,1.54.66,1.8,3.56,1,2.89-.79Z"/><path class="cls-2" d="M116,25.82c2.08,1.89,4.89.72,5.72-1.78a1.5,1.5,0,0,0-2.9-.8.73.73,0,0,1-.5.58c.14-.07,0,0-.06,0,.16,0,.06,0,0,0,.15,0-.07-.08-.09-.1a1.54,1.54,0,0,0-2.13,0,1.52,1.52,0,0,0,0,2.12Z"/><path class="cls-2" d="M32.53,50a12.13,12.13,0,0,0,.92-1.88,9.35,9.35,0,0,0,.74-1.8c.38-1.68-1-2.39-2.32-2.83l-.4,2.95c.17,0,.44-.06.58.08.84.84,2.72.28,2.56-1.06a2,2,0,0,0-1.47-1.9c-.26-.08-.55-.05-.8-.13a3.9,3.9,0,0,1-1-.73c-1.49-1.2-3.62.91-2.12,2.12a9.28,9.28,0,0,0,1.68,1.25,3.21,3.21,0,0,0,.79.27c1.15.24,0,0-.09-.88l2.56-1.07a3.49,3.49,0,0,0-2.7-1,1.5,1.5,0,0,0-.4,2.94l.43.14c.41.16.33-.14-.23-.88-.11,0-.32.76-.36.85a11.46,11.46,0,0,1-1,2C28.8,50.08,31.4,51.58,32.53,50Z"/><path class="cls-2" d="M56.46,22.61c.3-.73.39-.4,0-.26-.18.06-.36.16-.54.24s-.7.28-1,.44H54.6l.38.2a3.26,3.26,0,0,1-.29-.36c-.31-.42-.35-.91-.65-1.35C53,20,50.35,21.45,51.45,23.05c.23.34.27.81.51,1.17a7.39,7.39,0,0,0,.77,1A2.65,2.65,0,0,0,55,26a7.89,7.89,0,0,0,2.48-.87,3.15,3.15,0,0,0,1.85-1.73,1.51,1.51,0,0,0-1-1.85,1.54,1.54,0,0,0-1.85,1.05Z"/><path class="cls-5" d="M40.56,102.57c-.32,7.08,3.46,11.29,5.5,9.6,2.72-2.78-2.44-7.74-2.32-14.81a31.26,31.26,0,0,1-3.18,5.21"/><path class="cls-5" d="M39.06,102.57c-.06,3,1.84,14.19,7.45,11.1,2-1.1,2-3.66,1.52-5.59-1-3.69-2.73-6.79-2.79-10.72,0-1.41-2.12-2.15-2.8-.76a38.08,38.08,0,0,1-3.18,5.22c-1.11,1.58,1.49,3.08,2.59,1.51A37.49,37.49,0,0,0,45,98.11l-2.79-.75c.06,4.21,1.93,7.55,2.9,11.52.51,2.08-.35,2.66-1.58.77-1.35-2.06-1.55-4.7-1.5-7.08,0-1.93-3-1.93-3,0Z"/><path class="cls-5" d="M35.32,110.09a12.51,12.51,0,0,0,1.43,6.44c.54,1.24,3.26,6.08.9,5.62-5.18-1-3.12-8.89-2.33-12.06"/><path class="cls-5" d="M33.82,110.09a15.37,15.37,0,0,0,1.74,7.44c.33.71.7,1.41,1,2.14.11.26.21.94.42,1.13,0,.51.13.54.34.09.39-.29.3-.47-.26-.53-.39-.73-.94-1-1.16-1.92a9.63,9.63,0,0,1-.09-3,33.28,33.28,0,0,1,1-4.93c.47-1.87-2.42-2.67-2.89-.79-1,4.16-2.86,11.82,2.66,13.7,2.43.83,4-.74,3.38-3.18-.87-3.57-3.33-6.22-3.1-10.12.12-1.93-2.88-1.93-3,0Z"/><path class="cls-6" d="M107.57,128.25c-10-.81-7.71,5.74-.65,7.68"/><path class="cls-1" d="M45.79,117.45c4.13-4.72,11.92-3.11,14.15,3.24,1.25,3.59,1.86,8.2.84,11.91s-4.29,5.19-5.3,8.91c2.23.65,5.92,4.23,7.26,6.54,2.22,3.82,1.19,5.57-2.74,6.08-3,.4-6.56.49-9.38-1.09-2.54-1.42-6.18-3.63-8-6.35-2.1-3.2-.47-8.85-2.46-11.37"/><path class="cls-2" d="M46.85,118.51c6.55-6.51,12.28,1.65,12.86,8.09A12.54,12.54,0,0,1,57.05,136a19,19,0,0,0-3,5.09,1.53,1.53,0,0,0,1,1.85c2.48,1,8.27,5.84,6.47,8.62-2.25,3.48-10,.44-12.55-1.24-3.88-2.53-5.73-4.91-6.12-9.59-.18-2.24-.23-4.2-1.39-6.19a1.5,1.5,0,0,0-2.59,1.52c1.56,2.66.66,5.94,1.43,8.84a11.68,11.68,0,0,0,4.35,6c4.59,3.74,9.54,5.67,15.52,4.65,10.84-1.83,1.39-13.16-4.33-15.53l1.05,1.84c1.61-4.37,5.22-6.55,5.75-11.48.44-4-.22-9.19-2.51-12.65a9.9,9.9,0,0,0-15.43-1.39,1.5,1.5,0,0,0,2.12,2.12Z"/><path class="cls-1" d="M65.78,115.52c-2.33,18.36-1.87,34.74,9.62,35,7,.13,8.67-26.49,8.48-34.16"/><path class="cls-2" d="M64.28,115.52c-1.14,9.26-2.8,20.53,1.12,29.39,1.82,4.1,7.06,8.92,11.95,6.6,4.69-2.22,5.7-10.41,6.43-14.79a111.54,111.54,0,0,0,1.6-20.4c0-1.93-3-1.94-3,0a111.41,111.41,0,0,1-.78,14.49c-.57,5.05-1.07,11.65-3.87,16.07-4.12,6.51-9.85-2.81-10.76-6.9-1.75-7.91-.66-16.52.31-24.46.23-1.91-2.77-1.89-3,0Z"/><path class="cls-6" d="M81.84,131.33c-10.49-.59-7.86,5.74-.77,6.72"/></svg>